<svg version="1.1" xmlns="http://www.w3.org/2000/svg" xmlns:xlink="http://www.w3.org/1999/xlink" width="499.12634" height="400.07292" viewBox="0,0,499.12634,400.07292"><g transform="translate(7.63356,9.10199)"><g data-paper-data="{&quot;isPaintingLayer&quot;:true}" fill-rule="nonzero" stroke-width="0" stroke-linecap="butt" stroke-linejoin="miter" stroke-miterlimit="10" stroke-dasharray="" stroke-dashoffset="0" style="mix-blend-mode: normal"><path d="M-7.63356,390.97093v-400.07292h499.12634v400.07292z" fill="#08ca00" stroke="#000000"/><g fill="#059a00" stroke="none"><path d="M31.78628,55.35683v-6.412h6.03482v6.412z"/><path d="M37.92301,61.6096v-6.412h6.03482v6.412z"/><path d="M44.05975,55.21452v-6.412h6.03482v6.412z"/></g><g fill="#059a00" stroke="none"><path d="M76.7332,95.80269v-6.412h6.03482v6.412z"/><path d="M82.86994,102.05546v-6.412h6.03482v6.412z"/><path d="M89.00668,95.66038v-6.412h6.03482v6.412z"/></g><g fill="#059a00" stroke="none"><path d="M200.44871,154.25281v-6.412h6.03483v6.412z"/><path d="M206.58545,160.50558v-6.412h6.03482v6.412z"/><path d="M212.72219,154.1105v-6.412h6.03482v6.412z"/></g><g fill="#059a00" stroke="none"><path d="M147.43384,125.99378v-6.412h6.03482v6.412z"/><path d="M153.57058,132.24655v-6.412h6.03482v6.412z"/><path d="M159.70732,125.85147v-6.412h6.03483v6.412z"/></g><g fill="#059a00" stroke="none"><path d="M101.48904,122.24643v-6.412h6.03482v6.412z"/><path d="M107.62578,128.4992v-6.412h6.03482v6.412z"/><path d="M113.76252,122.10412v-6.412h6.03482v6.412z"/></g><g fill="#059a00" stroke="none"><path d="M146.43597,162.6923v-6.412h6.03483v6.412z"/><path d="M152.57271,168.94507v-6.412h6.03482v6.412z"/><path d="M158.70944,162.54999v-6.412h6.03482v6.412z"/></g><g fill="#059a00" stroke="none"><path d="M106.48904,157.6286v-6.412h6.03482v6.412z"/><path d="M112.62578,163.88137v-6.412h6.03482v6.412z"/><path d="M118.76252,157.48629v-6.412h6.03483v6.412z"/></g><g fill="#059a00" stroke="none"><path d="M151.43597,198.07447v-6.412h6.03482v6.412z"/><path d="M157.57271,204.32724v-6.412h6.03482v6.412z"/><path d="M163.70944,197.93216v-6.412h6.03483v6.412z"/></g><g fill="#059a00" stroke="none"><path d="M147.37015,223.82818v-6.412h6.03482v6.412z"/><path d="M153.50689,230.08095v-6.412h6.03482v6.412z"/><path d="M159.64362,223.68587v-6.412h6.03483v6.412z"/></g><g fill="#059a00" stroke="none"><path d="M101.42535,220.08084v-6.412h6.03482v6.412z"/><path d="M107.56209,226.33361v-6.412h6.03482v6.412z"/><path d="M113.69882,219.93853v-6.412h6.03482v6.412z"/></g><g fill="#059a00" stroke="none"><path d="M146.37227,260.52671v-6.412h6.03482v6.412z"/><path d="M152.50901,266.77948v-6.412h6.03482v6.412z"/><path d="M158.64575,260.3844v-6.412h6.03483v6.412z"/></g><g fill="#059a00" stroke="none"><path d="M106.42535,255.46301v-6.412h6.03482v6.412z"/><path d="M112.56209,261.71578v-6.412h6.03482v6.412z"/><path d="M118.69882,255.3207v-6.412h6.03483v6.412z"/></g><g fill="#059a00" stroke="none"><path d="M151.37227,295.90888v-6.412h6.03482v6.412z"/><path d="M157.50901,302.16165v-6.412h6.03482v6.412z"/><path d="M163.64575,295.76657v-6.412h6.03483v6.412z"/></g><g fill="#059a00" stroke="none"><path d="M251.39351,192.25705v-6.412h6.03482v6.412z"/><path d="M257.53025,198.50982v-6.412h6.03482v6.412z"/><path d="M263.66699,192.11474v-6.412h6.03483v6.412z"/></g><g fill="#059a00" stroke="none"><path d="M205.44871,188.50971v-6.412h6.03483v6.412z"/><path d="M211.58545,194.76248v-6.412h6.03482v6.412z"/><path d="M217.72219,188.3674v-6.412h6.03483v6.412z"/></g><g fill="#059a00" stroke="none"><path d="M250.39564,228.95558v-6.412h6.03483v6.412z"/><path d="M256.53238,235.20835v-6.412h6.03482v6.412z"/><path d="M262.66911,228.81327v-6.412h6.03483v6.412z"/></g><g fill="#059a00" stroke="none"><path d="M210.44871,223.89188v-6.412h6.03483v6.412z"/><path d="M216.58545,230.14465v-6.412h6.03482v6.412z"/><path d="M222.72219,223.74957v-6.412h6.03483v6.412z"/></g><g fill="#059a00" stroke="none"><path d="M255.39564,264.33775v-6.412h6.03483v6.412z"/><path d="M261.53238,270.59052v-6.412h6.03482v6.412z"/><path d="M267.66911,264.19544v-6.412h6.03483v6.412z"/></g><g fill="#059a00" stroke="none"><path d="M69.0368,131.42902v-6.412h6.03482v6.412z"/><path d="M75.17354,137.68179v-6.412h6.03482v6.412z"/><path d="M81.31028,131.28671v-6.412h6.03483v6.412z"/></g><g fill="#059a00" stroke="none"><path d="M23.092,127.68168v-6.412h6.03482v6.412z"/><path d="M29.22874,133.93445v-6.412h6.03482v6.412z"/><path d="M35.36548,127.53937v-6.412h6.03482v6.412z"/></g><g fill="#059a00" stroke="none"><path d="M68.03893,168.12754v-6.412h6.03482v6.412z"/><path d="M74.17567,174.38031v-6.412h6.03482v6.412z"/><path d="M80.3124,167.98523v-6.412h6.03483v6.412z"/></g><g fill="#059a00" stroke="none"><path d="M28.092,163.06385v-6.412h6.03482v6.412z"/><path d="M34.22874,169.31662v-6.412h6.03482v6.412z"/><path d="M40.36548,162.92154v-6.412h6.03483v6.412z"/></g><g fill="#059a00" stroke="none"><path d="M73.03893,203.50971v-6.412h6.03482v6.412z"/><path d="M79.17567,209.76248v-6.412h6.03482v6.412z"/><path d="M85.3124,203.3674v-6.412h6.03483v6.412z"/></g><g fill="#059a00" stroke="none"><path d="M225.38501,249.5182v-6.412h6.03482v6.412z"/><path d="M231.52175,255.77097v-6.412h6.03482v6.412z"/><path d="M237.65849,249.37589v-6.412h6.03483v6.412z"/></g><g fill="#059a00" stroke="none"><path d="M179.44021,245.77086v-6.412h6.03482v6.412z"/><path d="M185.57695,252.02363v-6.412h6.03482v6.412z"/><path d="M191.71369,245.62855v-6.412h6.03483v6.412z"/></g><g fill="#059a00" stroke="none"><path d="M224.38714,286.21673v-6.412h6.03482v6.412z"/><path d="M230.52388,292.4695v-6.412h6.03482v6.412z"/><path d="M236.66061,286.07442v-6.412h6.03483v6.412z"/></g><g fill="#059a00" stroke="none"><path d="M184.44021,281.15303v-6.412h6.03482v6.412z"/><path d="M190.57695,287.4058v-6.412h6.03482v6.412z"/><path d="M196.71369,281.01072v-6.412h6.03483v6.412z"/></g><g fill="#059a00" stroke="none"><path d="M229.38714,321.5989v-6.412h6.03482v6.412z"/><path d="M235.52388,327.85167v-6.412h6.03482v6.412z"/><path d="M241.66061,321.45659v-6.412h6.03483v6.412z"/></g><g fill="#059a00" stroke="none"><path d="M322.09415,159.43327v-6.412h6.03482v6.412z"/><path d="M328.23089,165.68604v-6.412h6.03482v6.412z"/><path d="M334.36763,159.29096v-6.412h6.03483v6.412z"/></g><g fill="#059a00" stroke="none"><path d="M276.14935,155.68593v-6.412h6.03483v6.412z"/><path d="M282.28609,161.9387v-6.412h6.03482v6.412z"/><path d="M288.42283,155.54362v-6.412h6.03483v6.412z"/></g><g fill="#059a00" stroke="none"><path d="M321.09628,196.13179v-6.412h6.03482v6.412z"/><path d="M327.23302,202.38456v-6.412h6.03482v6.412z"/><path d="M333.36975,195.98948v-6.412h6.03483v6.412z"/></g><g fill="#059a00" stroke="none"><path d="M281.14935,191.0681v-6.412h6.03483v6.412z"/><path d="M287.28609,197.32087v-6.412h6.03482v6.412z"/><path d="M293.42283,190.92579v-6.412h6.03483v6.412z"/></g><g fill="#059a00" stroke="none"><path d="M326.09628,231.51396v-6.412h6.03483v6.412z"/><path d="M332.23302,237.76673v-6.412h6.03482v6.412z"/><path d="M338.36975,231.37165v-6.412h6.03483v6.412z"/></g><g fill="#059a00" stroke="none"><path d="M45.77777,188.62648v-6.412h6.03482v6.412z"/><path d="M51.91451,194.87925v-6.412h6.03482v6.412z"/><path d="M58.05125,188.48417v-6.412h6.03483v6.412z"/></g><g fill="#059a00" stroke="none"><path d="M-0.16703,184.87914v-6.412h6.03483v6.412z"/><path d="M5.96971,191.13191v-6.412h6.03482v6.412z"/><path d="M12.10645,184.73683v-6.412h6.03483v6.412z"/></g><g fill="#059a00" stroke="none"><path d="M44.7799,225.325v-6.412h6.03482v6.412z"/><path d="M50.91664,231.57777v-6.412h6.03482v6.412z"/><path d="M57.05337,225.18269v-6.412h6.03483v6.412z"/></g><g fill="#059a00" stroke="none"><path d="M4.83297,220.26131v-6.412h6.03483v6.412z"/><path d="M10.96971,226.51408v-6.412h6.03482v6.412z"/><path d="M17.10645,220.119v-6.412h6.03483v6.412z"/></g><g fill="#059a00" stroke="none"><path d="M49.7799,260.70717v-6.412h6.03482v6.412z"/><path d="M55.91664,266.95994v-6.412h6.03482v6.412z"/><path d="M62.05337,260.56486v-6.412h6.03483v6.412z"/></g><g fill="#059a00" stroke="none"><path d="M356.85,245.38869v-6.412h6.03482v6.412z"/><path d="M362.98674,251.64146v-6.412h6.03482v6.412z"/><path d="M369.12347,245.24638v-6.412h6.03483v6.412z"/></g><g fill="#059a00" stroke="none"><path d="M288.39989,241.64135v-6.412h6.03483v6.412z"/><path d="M294.53663,247.89412v-6.412h6.03482v6.412z"/><path d="M300.67336,241.49904v-6.412h6.03483v6.412z"/></g><g fill="#059a00" stroke="none"><path d="M333.34681,282.08721v-6.412h6.03483v6.412z"/><path d="M339.48355,288.33998v-6.412h6.03482v6.412z"/><path d="M345.62029,281.9449v-6.412h6.03483v6.412z"/></g><g fill="#059a00" stroke="none"><path d="M293.39989,277.02352v-6.412h6.03483v6.412z"/><path d="M299.53663,283.27629v-6.412h6.03482v6.412z"/><path d="M305.67336,276.88121v-6.412h6.03483v6.412z"/></g><g fill="#059a00" stroke="none"><path d="M338.34681,317.46938v-6.412h6.03483v6.412z"/><path d="M344.48355,323.72215v-6.412h6.03482v6.412z"/><path d="M350.62029,317.32707v-6.412h6.03483v6.412z"/></g><g fill="#059a00" stroke="none"><path d="M409.67378,157.55428v-6.412h6.03482v6.412z"/><path d="M415.81052,163.80705v-6.412h6.03482v6.412z"/><path d="M421.94726,157.41197v-6.412h6.03483v6.412z"/></g><g fill="#059a00" stroke="none"><path d="M363.72898,153.80694v-6.412h6.03483v6.412z"/><path d="M369.86572,160.05971v-6.412h6.03482v6.412z"/><path d="M376.00246,153.66463v-6.412h6.03483v6.412z"/></g><g fill="#059a00" stroke="none"><path d="M408.67591,194.25281v-6.412h6.03483v6.412z"/><path d="M414.81265,200.50558v-6.412h6.03482v6.412z"/><path d="M420.94938,194.1105v-6.412h6.03483v6.412z"/></g><g fill="#059a00" stroke="none"><path d="M368.72898,189.18911v-6.412h6.03483v6.412z"/><path d="M374.86572,195.44188v-6.412h6.03482v6.412z"/><path d="M381.00246,189.0468v-6.412h6.03483v6.412z"/></g><g fill="#059a00" stroke="none"><path d="M413.67591,229.63498v-6.412h6.03483v6.412z"/><path d="M419.81265,235.88775v-6.412h6.03482v6.412z"/><path d="M425.94938,229.49267v-6.412h6.03483v6.412z"/></g><g fill="#059a00" stroke="none"><path d="M440.55489,257.07659v-6.412h6.03482v6.412z"/><path d="M446.69163,263.32936v-6.412h6.03482v6.412z"/><path d="M452.82836,256.93428v-6.412h6.03483v6.412z"/></g><g fill="#059a00" stroke="none"><path d="M394.61009,253.32925v-6.412h6.03482v6.412z"/><path d="M400.74683,259.58202v-6.412h6.03482v6.412z"/><path d="M406.88356,253.18694v-6.412h6.03483v6.412z"/></g><g fill="#059a00" stroke="none"><path d="M439.55701,293.77511v-6.412h6.03483v6.412z"/><path d="M445.69375,300.02788v-6.412h6.03482v6.412z"/><path d="M451.83049,293.6328v-6.412h6.03482v6.412z"/></g><g fill="#059a00" stroke="none"><path d="M399.61009,288.71142v-6.412h6.03483v6.412z"/><path d="M405.74683,294.96419v-6.412h6.03482v6.412z"/><path d="M411.88356,288.56911v-6.412h6.03483v6.412z"/></g><g fill="#059a00" stroke="none"><path d="M444.55701,329.15728v-6.412h6.03482v6.412z"/><path d="M450.69375,335.41005v-6.412h6.03482v6.412z"/><path d="M456.83049,329.01497v-6.412h6.03482v6.412z"/></g><g fill="#059a00" stroke="none"><path d="M267.64617,305.28255v-6.412h6.03483v6.412z"/><path d="M273.78291,311.53532v-6.412h6.03482v6.412z"/><path d="M279.91964,305.14024v-6.412h6.03482v6.412z"/></g><g fill="#059a00" stroke="none"><path d="M106.10687,293.40357v-6.412h6.03483v6.412z"/><path d="M112.24361,299.65634v-6.412h6.03482v6.412z"/><path d="M118.38035,293.26126v-6.412h6.03482v6.412z"/></g><g fill="#059a00" stroke="none"><path d="M61.35103,290.28255v-6.412h6.03483v6.412z"/><path d="M67.48777,296.53532v-6.412h6.03482v6.412z"/><path d="M73.6245,290.14024v-6.412h6.03482v6.412z"/></g><g fill="#059a00" stroke="none"><path d="M21.4041,285.21885v-6.412h6.03483v6.412z"/><path d="M27.54084,291.47162v-6.412h6.03482v6.412z"/><path d="M33.67758,285.07654v-6.412h6.03482v6.412z"/></g><g fill="#059a00" stroke="none"><path d="M66.35103,325.66472v-6.412h6.03483v6.412z"/><path d="M72.48777,331.91749v-6.412h6.03482v6.412z"/><path d="M78.6245,325.52241v-6.412h6.03482v6.412z"/></g><g fill="#059a00" stroke="none"><path d="M21.08563,323.15941v-6.412h6.03482v6.412z"/><path d="M27.22237,329.41218v-6.412h6.03482v6.412z"/><path d="M33.3591,323.0171v-6.412h6.03482v6.412z"/></g><g fill="#059a00" stroke="none"><path d="M444.44024,172.6286v-6.412h6.03483v6.412z"/><path d="M450.57698,178.88137v-6.412h6.03482v6.412z"/><path d="M456.71372,172.48629v-6.412h6.03483v6.412z"/></g><g fill="#059a00" stroke="none"><path d="M444.12177,210.56916v-6.412h6.03483v6.412z"/><path d="M450.25851,216.82193v-6.412h6.03482v6.412z"/><path d="M456.39524,210.42685v-6.412h6.03482v6.412z"/></g><g fill="#059a00" stroke="none"><path d="M175.00285,304.34837v-6.412h6.03483v6.412z"/><path d="M181.13959,310.60114v-6.412h6.03482v6.412z"/><path d="M187.27632,304.20606v-6.412h6.03482v6.412z"/></g><g fill="#059a00" stroke="none"><path d="M180.00285,339.73054v-6.412h6.03483v6.412z"/><path d="M186.13959,345.98331v-6.412h6.03482v6.412z"/><path d="M192.27632,339.58823v-6.412h6.03482v6.412z"/></g><g fill="#059a00" stroke="none"><path d="M134.73745,337.22523v-6.412h6.03483v6.412z"/><path d="M140.87419,343.478v-6.412h6.03482v6.412z"/><path d="M147.01092,337.08292v-6.412h6.03482v6.412z"/></g></g></g></svg>